<svg xmlns="http://www.w3.org/2000/svg" viewBox="0 0 317.6 256"><path d="M72 15.5c17.7 0 35.2-0.2 52.7 0.1 4 0.1 7.9 1.7 11.9 2.6 1 0.2 2.1 0.2 3 0 3.6-0.8 7.2-2.4 10.9-2.5 9.5-0.4 19-0.1 28.5-0.1 5.7 0 9.7 2.5 13.1 6.9 1.2 1.5 3.5 2.9 5.4 3 16.5 0.2 33-0.2 49.5 0.3 4.7 0.1 10 1.4 14.1 3.7 15.6 8.8 30.8 18.4 46.3 27.5 7 4.1 10.3 9.8 10.2 18 -0.1 35.5-0.1 71 0 106.5 0 8.2-3.3 13.8-10.3 17.9 -15.5 9-30.7 18.6-46.3 27.5 -3.8 2.2-8.7 3.6-13.1 3.7 -16.5 0.4-33 0.2-49.5 0.1 -3.1 0-5.2 0.5-6.9 3.5 -2.6 4.5-6.9 6.6-12.1 6.6 -9.7 0-19.3 0.2-29-0.1 -4.1-0.1-8.3-1.5-11.6-2.2 -5.3 0.8-10.3 2.1-15.2 2.2 -17.1 0.3-34.3 0.1-51.4 0.1 -3.2 12.5-7.3 15.5-20.1 15.5 -11.8 0-23.7 0-35.5 0 -10.4 0-16.5-6-16.5-16.3 0-74.5 0-148.9 0-223.4C0 6.2 6.1 0.1 16.2 0c12.5-0.1 25 0 37.5 0C64.8 0 69.5 3.9 72 15.5zM122.6 219.8c0-61.4 0-122.5 0-183.4 -20.5 0-40.6 0-60.7 0 0 61.3 0 122.3 0 183.4C82.2 219.8 102.3 219.8 122.6 219.8zM184.3 209.7c20.5 0 40.7 0 60.8 0 0-54.7 0-109.1 0-163.3 -20.5 0-40.5 0-60.8 0C184.3 101 184.3 155.3 184.3 209.7zM50.6 235.2c0-71.8 0-143.1 0-214.4 -10.2 0-20 0-29.9 0 0 71.6 0 142.8 0 214.4C30.6 235.2 40.4 235.2 50.6 235.2zM173.6 219.8c0-61.3 0-122.4 0-183.5 -6.8 0-13.3 0-19.8 0 0 61.3 0 122.3 0 183.5C160.5 219.8 166.9 219.8 173.6 219.8zM256.5 50.6c0 51.9 0 103 0 154.8 7.4-4.4 14.1-8.3 20.7-12.4 1.1-0.7 1.8-2.8 1.8-4.2 0.1-40.5 0.1-81 0-121.4 0-1.3-0.4-3.3-1.3-3.9C270.8 59.1 263.8 55 256.5 50.6zM143.1 209.9c0-54.8 0-109.2 0-163.6 -3.5 0-6.6 0-9.7 0 0 54.7 0 109 0 163.6C136.7 209.9 139.7 209.9 143.1 209.9zM284.2 189.3c3.9-2.3 7.3-4.1 10.4-6.4 1.2-0.9 2.3-2.9 2.3-4.3 0.1-33.5 0.1-67 0-100.5 0-1.3-0.4-3.3-1.3-3.9 -3.4-2.4-7.2-4.4-11.4-6.9C284.2 108.3 284.2 148.4 284.2 189.3z"/><path d="M117.1 161.5c-8.9 0-17.4-0.1-25.8 0.1 -4 0.1-5-1.5-3.7-5.3 9.7 0 19.5 0 29.6 0C117.1 157.8 117.1 159.3 117.1 161.5z"/><path d="M117.3 94.8c0 1.8 0 3.3 0 4.9 -10 0-19.7 0-29.8 0 0-1.6 0-3.1 0-4.9C97.3 94.8 107 94.8 117.3 94.8z"/><path d="M87.1 68.7c0.1-1.7 0.2-3 0.3-4.5 10 0 19.7 0 29.8 0 0.1 1.4 0.2 2.8 0.4 4.5C107.4 68.7 97.5 68.7 87.1 68.7z"/><path d="M117.3 187.4c0 1.5 0 2.8 0 4.4 -10 0-19.9 0-30 0 -0.1-1.5-0.2-2.7-0.2-4.4C97.2 187.4 107 187.4 117.3 187.4z"/><path d="M116.9 125.5c1.1 3.5 0.6 5.1-2.9 5 -7.8-0.1-15.7 0.1-23.5-0.1 -1.2 0-2.3-1.5-3.5-2.2 1.1-0.9 2.1-2.5 3.2-2.5C99.1 125.5 107.9 125.5 116.9 125.5z"/></svg>