<svg xmlns="http://www.w3.org/2000/svg" viewBox="0 0 234.6 181.8"><path d="M84.9 23.4c5.6 1.3 12.4 2.9 19.1 4.6 24.1 5.9 48.2 11.8 72.2 17.7 10.5 2.6 13.1 6.8 10.5 17.3 -7.1 29.3-14.3 58.5-21.4 87.8 -2.2 9.1-6.9 12-16.1 9.7 -29.7-7.3-59.5-14.5-89.2-21.8 -8.2-2-11.3-7-9.3-15.2 7.3-29.9 14.6-59.8 21.9-89.7C74.3 26.9 78 23.5 84.9 23.4zM154.5 92.5c0-19.7-15.8-35.7-35.4-35.8 -19.6 0-35.6 15.9-35.7 35.6 0 19.7 15.7 35.6 35.5 35.6C138.7 128 154.5 112.2 154.5 92.5z"/><path d="M20.5 87.4c3 3.8 5.8 7.2 8.9 11 -11.3 10.1-16.9 22.7-14.7 37.8 2.2 15.2 11.1 25.7 25.3 32.3 -1.7 4.4-3.4 8.6-5.2 13.2 -19.4-8.6-31.2-22.8-34.2-43.3C-2.3 118.2 4.7 101.2 20.5 87.4z"/><path d="M226.1 83.3c-3.8-2.3-7.5-4.6-11.6-7.1 7.4-13.5 8.4-27.1 1.2-40.7 -7.2-13.6-19.1-20.3-34.1-22 0-4.6 0-8.9 0-13.1 14.1-2.7 35.1 9.1 44.9 25.1C237.5 43.4 237.4 68.6 226.1 83.3z"/><path d="M34.6 102.5c3 3.8 5.8 7.2 8.9 11 -5.5 5.4-8.6 11.7-7.4 19.6 1.1 7.9 5.9 13.1 13 16.9 -1.7 4.3-3.3 8.5-5.1 13 -12.1-5.4-19.5-14.1-21.7-26.8C19.8 122.8 24.3 111.8 34.6 102.5z"/><path d="M179.5 20.1c13.6 1 23.5 7 29.7 18.5 6.3 11.7 5.8 23.5-1 35.4 -4.1-2.6-7.9-4.9-11.6-7.2 7-15.9-0.9-30.2-17-32.6C179.5 29.7 179.5 25.1 179.5 20.1z"/><path d="M141.5 92.6c-0.1 12.5-10.1 22.4-22.6 22.4 -12.6 0-22.7-10.4-22.5-23 0.2-12.3 10.6-22.4 22.9-22.2C131.7 69.9 141.6 80.1 141.5 92.6z"/></svg>